<?xml version="1.0" encoding="utf-8"?>
<!-- Generator: Adobe Illustrator 23.0.1, SVG Export Plug-In . SVG Version: 6.00 Build 0)  -->
<svg version="1.1" id="Vrstva_2" xmlns="http://www.w3.org/2000/svg" xmlns:xlink="http://www.w3.org/1999/xlink" x="0px" y="0px"
	 viewBox="0 0 456 456" style="enable-background:new 0 0 456 456;" xml:space="preserve">
<style type="text/css">
	.st0{fill:#FFFFFF;}
</style>
<g>
	<path class="st0" d="M161.5,202.6c1.6,0,3.1,0.6,4.3,1.8c1.1,1.1,1.7,2.6,1.7,4.3c0,4,0,10.1,0,18.1c0,1.7-0.6,3.1-1.7,4.3
		c-1.2,1.2-2.6,1.8-4.3,1.8c-4,0-10.1,0-18.2,0c-2.7,0-6.7,0-12.1,0c0-2.7,0-6.7,0-12.1c0-2.7,0-6.8,0-12.1c0-2.7,0-6.7,0-12.1
		c0-1.4,0-3.1,0-5.1c0-2,0-4.4,0-7.1c0-2.7,0-6.7,0-12.1c2.7,0,6.7,0,12.1,0c4,0,10.1,0,18.2,0c1.6,0,3.1,0.6,4.3,1.7
		c1.1,1.2,1.7,2.6,1.7,4.3c0,4,0,10.1,0,18.2c0,1.6-0.6,3.1-1.7,4.3C164.5,202.1,163.1,202.6,161.5,202.6z M143.3,196.6
		c2.7,0,6.8,0,12.1,0c0-0.5,0-1.2,0-2.1c0-2.2,0-5.6,0-10c-2.7,0-6.7,0-12.1,0C143.3,187.2,143.3,191.2,143.3,196.6z M143.3,220.8
		c2.7,0,6.8,0,12.1,0c0-0.5,0-1.2,0-2.1c0-2.2,0-5.6,0-10c-2.7,0-6.7,0-12.1,0C143.3,211.4,143.3,215.4,143.3,220.8z"/>
	<path class="st0" d="M215.9,232.9c-2.7,0-6.7,0-12.1,0c0-5.4,0-13.4,0-24.2c-2.7,0-6.7,0-12.1,0c0,5.4,0,13.4,0,24.2
		c-2.7,0-6.7,0-12.1,0c0-4.5,0-11.4,0-20.5c0-3.8,0-8.5,0-14.1c0-5.7,0-12.3,0-19.9c0-1.6,0.6-3.1,1.8-4.3c1.1-1.1,2.6-1.7,4.3-1.7
		c5.4,0,13.4,0,24.2,0c1.6,0,3.1,0.6,4.3,1.7c1.1,1.2,1.7,2.6,1.7,4.3C215.9,190.6,215.9,208.7,215.9,232.9z M203.8,196.6
		c0-0.5,0-1.2,0-2.1c0-2.2,0-5.6,0-10c-2.7,0-6.7,0-12.1,0c0,2.7,0,6.7,0,12.1C194.4,196.6,198.4,196.6,203.8,196.6z"/>
	<path class="st0" d="M264.3,178.4c0,12.1,0,30.3,0,54.5c-2.7,0-6.7,0-12.1,0c0-10.8,0-26.9,0-48.4c-2.7,0-6.7,0-12.1,0
		c0,10.8,0,26.9,0,48.4c-2.7,0-6.7,0-12.1,0c0-6.7,0-15.1,0-25.2c0-10.1,0-21.8,0-35.3c2.7,0,6.7,0,12.1,0c4,0,10.1,0,18.2,0
		c1.6,0,3.1,0.6,4.3,1.7C263.7,175.4,264.3,176.8,264.3,178.4z"/>
	<path class="st0" d="M312.7,178.4c0,10.8,0,26.9,0,48.4c0,1.7-0.6,3.1-1.7,4.3c-1.2,1.2-2.6,1.8-4.3,1.8c-4,0-10.1,0-18.2,0
		c-1.3,0-3.3,0-6,0c-1.4,0-3.4,0-6.1,0c0-6.7,0-15.1,0-25.2c0-10.1,0-21.8,0-35.3c2.4,0,5.9,0,10.6,0c0.3,0,0.8,0,1.5,0
		c4,0,10.1,0,18.2,0c1.6,0,3.1,0.6,4.3,1.7C312.1,175.4,312.7,176.8,312.7,178.4z M288.5,220.8c2.7,0,6.8,0,12.1,0
		c0-0.5,0-1.3,0-2.4c0-7.5,0-18.9,0-34c-2.7,0-6.7,0-12.1,0c0,4,0,10.1,0,18.1C288.5,206.7,288.5,212.7,288.5,220.8z"/>
	<path class="st0" d="M123.3,253.1c-4.7,0-7.8,0-9.4,0c0,18.9,0,31.5,0,37.8c-4.7,0-7.9,0-9.5,0c0-18.9,0-31.5,0-37.8
		c-4.7,0-7.8,0-9.4,0c0-2.3,0-4.3,0-5.9c0-1.6,0-2.8,0-3.5c14.2,0,23.6,0,28.3,0C123.3,247.9,123.3,251,123.3,253.1z"/>
	<path class="st0" d="M156.4,267.3c1.3,0,2.4,0.5,3.3,1.4c0.9,0.9,1.3,2,1.3,3.3c0,4.2,0,10.5,0,18.9c-2.1,0-5.2,0-9.4,0
		c0-4.2,0-10.5,0-18.9c-2.1,0-5.3,0-9.5,0c0,4.2,0,10.5,0,18.9c-2.1,0-5.2,0-9.4,0c0-4.2,0-10.5,0-18.9c0-2.1,0-5.2,0-9.4
		c0-2.1,0-4.7,0-7.9s0-6.8,0-11c2.1,0,5.2,0,9.4,0c3.2,0,7.9,0,14.2,0c1.3,0,2.4,0.4,3.3,1.3c0.9,0.9,1.3,2,1.3,3.3
		c0,3.2,0,7.9,0,14.2c0,1.3-0.4,2.4-1.3,3.3C158.8,266.8,157.7,267.3,156.4,267.3z M151.7,262.6c0-0.4,0-0.9,0-1.7
		c0-1.8,0-4.4,0-7.8c-2.1,0-5.3,0-9.5,0c0,2.1,0,5.3,0,9.5C144.3,262.6,147.5,262.6,151.7,262.6z"/>
	<path class="st0" d="M198.9,290.9c-2.1,0-5.2,0-9.4,0c0-4.2,0-10.5,0-18.9c-2.1,0-5.3,0-9.5,0c0,4.2,0,10.5,0,18.9
		c-2.1,0-5.2,0-9.4,0c0-3.5,0-8.9,0-16c0-2.9,0-6.6,0-11c0-4.4,0-9.6,0-15.5c0-1.3,0.5-2.4,1.4-3.3c0.9-0.9,2-1.3,3.3-1.3
		c4.2,0,10.5,0,18.9,0c1.3,0,2.4,0.4,3.3,1.3c0.9,0.9,1.3,2,1.3,3.3C198.9,257.8,198.9,272,198.9,290.9z M189.5,262.6
		c0-0.4,0-0.9,0-1.7c0-1.8,0-4.4,0-7.8c-2.1,0-5.3,0-9.5,0c0,2.1,0,5.3,0,9.5C182.1,262.6,185.3,262.6,189.5,262.6z"/>
	<path class="st0" d="M227.3,257.8c0-1.1,0-2.6,0-4.7c-2.1,0-5.3,0-9.5,0c0,6.3,0,15.8,0,28.4c2.1,0,5.3,0,9.5,0c0-1.1,0-2.6,0-4.7
		c2.1,0,5.2,0,9.4,0c0,2.1,0,5.2,0,9.4c0,1.3-0.4,2.4-1.3,3.3c-0.9,0.9-2.1,1.4-3.3,1.4c-4.2,0-10.5,0-18.9,0
		c-1.3,0-2.4-0.5-3.3-1.4c-0.9-0.9-1.4-2-1.4-3.3c0-3.2,0-7.9,0-14.2c0-2.6,0-5.8,0-9.7c0-4,0-8.6,0-13.8c0-1.3,0.5-2.4,1.4-3.3
		c0.9-0.9,2-1.3,3.3-1.3c4.2,0,10.5,0,18.9,0c1.3,0,2.4,0.4,3.3,1.3c0.9,0.9,1.3,2,1.3,3.3c0,2.1,0,5.3,0,9.5
		C234.6,257.8,231.4,257.8,227.3,257.8z"/>
	<path class="st0" d="M274.5,267.3c0,5.3,0,13.1,0,23.6c-2.1,0-5.2,0-9.4,0c0-4.2,0-10.5,0-18.9c-2.1,0-5.3,0-9.5,0
		c0,4.2,0,10.5,0,18.9c-2.1,0-5.2,0-9.4,0c0-5.3,0-11.8,0-19.7c0-7.9,0-17,0-27.5c2.1,0,5.2,0,9.4,0c0,4.2,0,10.5,0,18.9
		c0.5,0,1.2,0,2,0c1.7-4.2,4.3-10.5,7.7-18.9c2.3,0,5.9,0,10.6,0c-2,4.2-4.9,10.5-8.8,18.9c0.6,0,1.5,0,2.7,0c1.3,0,2.4,0.4,3.3,1.3
		C274,264.9,274.5,266,274.5,267.3z"/>
	<path class="st0" d="M294.8,253.1c0,4.2,0,7.3,0,9.5c6.3,0,11.1,0,14.2,0c0,4.2,0,7.3,0,9.4c-6.3,0-11.1,0-14.2,0
		c0,4.2,0,7.3,0,9.5c8.4,0,14.7,0,18.9,0c0,4.2,0,7.3,0,9.4c-8.4,0-14.7,0-18.9,0c-4.2,0-7.3,0-9.4,0c0-2.1,0-3.9,0-5.5s0-2.9,0-3.9
		c0-4.7,0-7.9,0-9.5c0-4.7,0-7.9,0-9.4c0-4.7,0-7.9,0-9.5c0-4.7,0-7.8,0-9.4c4.7,0,7.9,0,9.4,0c9.5,0,15.8,0,18.9,0
		c0,4.7,0,7.8,0,9.4C305.4,253.1,299.1,253.1,294.8,253.1z"/>
	<path class="st0" d="M346.8,267.3c1.3,0,2.4,0.5,3.3,1.4c0.9,0.9,1.3,2,1.3,3.3c0,4.2,0,10.5,0,18.9c-2.1,0-5.2,0-9.4,0
		c0-4.2,0-10.5,0-18.9c-2.1,0-5.3,0-9.5,0c0,4.2,0,10.5,0,18.9c-2.1,0-5.2,0-9.4,0c0-4.2,0-10.5,0-18.9c0-2.1,0-5.2,0-9.4
		c0-2.1,0-4.7,0-7.9s0-6.8,0-11c2.1,0,5.2,0,9.4,0c3.2,0,7.9,0,14.2,0c1.3,0,2.4,0.4,3.3,1.3c0.9,0.9,1.3,2,1.3,3.3
		c0,3.2,0,7.9,0,14.2c0,1.3-0.4,2.4-1.3,3.3C349.2,266.8,348.1,267.3,346.8,267.3z M342.1,262.6c0-0.4,0-0.9,0-1.7
		c0-1.8,0-4.4,0-7.8c-2.1,0-5.3,0-9.5,0c0,2.1,0,5.3,0,9.5C334.8,262.6,337.9,262.6,342.1,262.6z"/>
</g>
</svg>
