<?xml version="1.0" encoding="utf-8"?>
<!-- Generator: Adobe Illustrator 23.0.1, SVG Export Plug-In . SVG Version: 6.00 Build 0)  -->
<svg version="1.1" id="Vrstva_2" xmlns="http://www.w3.org/2000/svg" xmlns:xlink="http://www.w3.org/1999/xlink" x="0px" y="0px"
	 viewBox="0 0 456 456" style="enable-background:new 0 0 456 456;" xml:space="preserve">
<style type="text/css">
	.st0{fill:#FFFFFF;}
</style>
<g>
	<path class="st0" d="M155.1,233.2h-28.3c-0.9,0-1.6-0.2-2-0.6c-0.4-0.4-0.6-1.1-0.6-2v-47.8c0-0.9,0.2-1.6,0.6-2
		c0.4-0.4,1.1-0.6,2-0.6h23.5c4.8,0,8.4,0.9,10.7,2.8c2.3,1.8,3.5,4.7,3.5,8.5v3.5c0,2.1-0.4,3.8-1.1,5.1c-0.7,1.3-1.8,2.3-3.3,2.9
		c3.1,0.3,5.5,1.4,7,3.2c1.5,1.9,2.3,4.6,2.3,8.2v6.8c0,4.1-1.2,7.2-3.5,9.1C163.6,232.2,160,233.2,155.1,233.2z M132.3,226.5h19.8
		c2.1,0,3.7-0.2,5-0.6c1.3-0.4,2.3-0.9,2.9-1.5c0.7-0.6,1.1-1.4,1.4-2.3c0.2-0.9,0.4-1.9,0.4-3v-4.7c0-1.2-0.1-2.4-0.3-3.4
		c-0.2-1-0.7-1.9-1.4-2.7c-0.7-0.8-1.7-1.4-3-1.8c-1.3-0.4-2.9-0.6-4.9-0.6c2.1-0.5,3.4-1.4,3.9-2.7c0.5-1.2,0.8-2.6,0.8-4.1v-4.7
		c0-1.1-0.1-2.1-0.4-3c-0.2-0.9-0.7-1.8-1.4-2.5c-0.7-0.7-1.7-1.3-3-1.7c-1.3-0.4-2.9-0.6-4.9-0.6h-15V226.5z M147.3,187.4
		c3.7,0,6.1,0.7,7.2,2.1c1.1,1.4,1.7,3,1.7,5v4.7c0,0.9-0.1,1.7-0.3,2.5c-0.2,0.8-0.6,1.5-1.2,2.1c-0.6,0.6-1.5,1.1-2.7,1.5
		c-1.2,0.4-2.8,0.6-4.8,0.6h-14.2v-18.5H147.3z M152.2,206.7c3.7,0,6.1,0.7,7.2,2.2c1.1,1.5,1.7,3.3,1.7,5.5v4.7
		c0,2-0.6,3.6-1.7,4.8c-1.1,1.2-3.5,1.8-7.2,1.8h-19.1v-19.1H152.2z M140.7,192.6v8h6.3c0.9,0,1.6-0.2,2.1-0.7
		c0.5-0.5,0.7-1.2,0.7-2.2v-2.1c0-1-0.2-1.7-0.7-2.2c-0.5-0.5-1.2-0.7-2.1-0.7H140.7z M140.7,211.9v8.7h9.6c0.9,0,1.6-0.2,2.1-0.7
		c0.5-0.5,0.7-1.2,0.7-2.2v-2.9c0-1-0.2-1.7-0.7-2.2c-0.5-0.5-1.2-0.7-2.1-0.7H140.7z"/>
	<path class="st0" d="M192.7,230.5c0,0.9-0.2,1.6-0.6,2c-0.4,0.4-1.1,0.6-2,0.6h-10.8c-0.9,0-1.6-0.2-2-0.6c-0.4-0.4-0.6-1.1-0.6-2
		v-19.5c0-1.5,0.2-3.2,0.7-5.1c0.5-1.9,1.2-4.2,2.2-6.7l6.4-16.7c0.3-0.8,0.7-1.5,1.4-1.8c0.6-0.4,1.4-0.6,2.4-0.6h19.8
		c0.9,0,1.7,0.2,2.3,0.6c0.6,0.4,1.1,1,1.4,1.8l6.4,16.7c1,2.6,1.7,4.8,2.2,6.7c0.5,1.9,0.7,3.6,0.7,5.1v19.5c0,0.9-0.2,1.6-0.6,2
		c-0.4,0.4-1.1,0.6-2,0.6h-11.1c-1,0-1.7-0.2-2.2-0.6c-0.5-0.4-0.7-1.1-0.7-2v-10.3h-13.1V230.5z M213.8,226.5h0.7v-15.7
		c0-1.4-0.1-2.6-0.3-3.8c-0.2-1.2-0.5-2.3-0.9-3.4l-5.1-12c-0.6-1.4-1.2-2.6-1.9-3.5c-0.7-0.9-1.8-1.4-3.4-1.4h-7.2
		c-1.7,0-2.9,0.5-3.5,1.4c-0.7,0.9-1.3,2.1-1.8,3.5l-4.7,12.1c-0.4,1.1-0.7,2.2-0.9,3.4c-0.2,1.2-0.3,2.4-0.3,3.8v15.7h0.7v-12.7
		h28.8V226.5z M185.1,210.8c0-1.3,0.1-2.6,0.3-3.7c0.2-1.1,0.5-2.2,0.8-3.2l4.7-12.1c0.5-1.2,1-2.3,1.6-3.1c0.6-0.9,1.6-1.3,3.1-1.3
		h7.2c1.4,0,2.4,0.4,3,1.3c0.6,0.9,1.2,1.9,1.7,3.2l5.1,12c0.3,1,0.6,2,0.8,3.2c0.2,1.1,0.3,2.4,0.3,3.7v2.3h-28.8V210.8z
		 M196.9,195.6l-3.5,11.2H205l-3.5-11.2c-0.2-0.4-0.4-0.8-0.6-1c-0.2-0.2-0.5-0.3-0.8-0.3h-1.8c-0.3,0-0.6,0.1-0.8,0.3
		C197.3,194.8,197.1,195.1,196.9,195.6z"/>
	<path class="st0" d="M245.2,233.2h-11.1c-0.9,0-1.6-0.2-2-0.6c-0.4-0.4-0.6-1.1-0.6-2v-47.8c0-0.9,0.2-1.6,0.6-2
		c0.4-0.4,1.1-0.6,2-0.6h7.7c0.9,0,1.7,0.1,2.4,0.4c0.7,0.3,1.3,0.8,2,1.5l14.3,16.4v-15.7c0-0.9,0.2-1.6,0.6-2
		c0.4-0.4,1.1-0.6,2-0.6h11.1c0.9,0,1.6,0.2,2,0.6c0.4,0.4,0.6,1.1,0.6,2v47.8c0,0.9-0.2,1.6-0.6,2c-0.4,0.4-1.1,0.6-2,0.6h-11.1
		c-0.9,0-1.6-0.2-2-0.6c-0.4-0.4-0.6-1.1-0.6-2v-9.1l-12.6-15.3v24.3c0,0.9-0.2,1.6-0.6,2C246.8,233,246.1,233.2,245.2,233.2z
		 M241.2,187.3c-0.2-0.2-0.4-0.4-0.6-0.5c-0.1-0.1-0.3-0.1-0.5-0.1c-0.2,0-0.4,0.1-0.6,0.2c-0.2,0.1-0.3,0.4-0.3,0.7v39h0.7v-38.9
		c0,0,0-0.1,0-0.1c0,0,0.1-0.1,0.1-0.1c0,0,0.1,0,0.2,0.1c0.1,0,0.1,0.1,0.2,0.1l27.9,31.3v7.6h0.7v-39.8h-0.7v31.1L241.2,187.3z"/>
	<path class="st0" d="M314.5,233.2h-24.9c-0.9,0-1.6-0.2-2-0.6c-0.4-0.4-0.6-1.1-0.6-2v-47.8c0-0.9,0.2-1.6,0.6-2
		c0.4-0.4,1.1-0.6,2-0.6h24.9c6.1,0,10.7,1.2,13.7,3.7c3,2.5,4.5,6.2,4.5,11.4v23c0,5.1-1.5,8.9-4.5,11.4
		C325.2,232,320.7,233.2,314.5,233.2z M295.1,226.5h17.9c2.5,0,4.5-0.3,6.1-0.8c1.6-0.5,2.8-1.2,3.6-2.1c0.8-0.9,1.4-1.9,1.7-3.2
		c0.3-1.2,0.4-2.6,0.4-4V197c0-1.4-0.1-2.8-0.4-4c-0.3-1.3-0.9-2.3-1.7-3.2c-0.8-0.9-2-1.6-3.6-2.2c-1.5-0.5-3.6-0.8-6.1-0.8h-17.9
		V226.5z M312.9,187.4c2.3,0,4.2,0.2,5.6,0.7c1.5,0.5,2.6,1.2,3.4,2c0.8,0.8,1.3,1.8,1.6,3c0.3,1.2,0.4,2.4,0.4,3.8v19.5
		c0,1.3-0.1,2.6-0.4,3.7c-0.3,1.2-0.8,2.1-1.6,3c-0.8,0.8-1.9,1.5-3.4,1.9c-1.5,0.5-3.4,0.7-5.7,0.7h-17.1v-38.4H312.9z
		 M303.8,194.2v25.1h8.8c1.2,0,2.1-0.3,2.6-0.9c0.6-0.6,0.8-1.5,0.8-2.7v-17.9c0-1.2-0.3-2.1-0.8-2.7c-0.6-0.6-1.4-0.8-2.6-0.8
		H303.8z"/>
</g>
<g>
	<path class="st0" d="M151.4,247.5c-3.4,0-5.7,0-6.9,0c0,13.8,0,23.1,0,27.7c-3.5,0-5.8,0-6.9,0c0-13.8,0-23,0-27.7
		c-3.4,0-5.7,0-6.9,0c0-1.7,0-3.2,0-4.3c0-1.2,0-2,0-2.6c10.4,0,17.3,0,20.7,0C151.4,243.6,151.4,245.9,151.4,247.5z"/>
	<path class="st0" d="M175.6,257.8c0.9,0,1.8,0.3,2.4,1c0.7,0.7,1,1.5,1,2.4c0,3.1,0,7.7,0,13.8c-1.5,0-3.8,0-6.9,0
		c0-3.1,0-7.7,0-13.8c-1.5,0-3.8,0-6.9,0c0,3.1,0,7.7,0,13.8c-1.5,0-3.8,0-6.9,0c0-3.1,0-7.7,0-13.8c0-1.5,0-3.8,0-6.9
		c0-1.5,0-3.5,0-5.8c0-2.3,0-5,0-8.1c1.5,0,3.8,0,6.9,0c2.3,0,5.8,0,10.4,0c0.9,0,1.8,0.3,2.4,1c0.7,0.7,1,1.5,1,2.4
		c0,2.3,0,5.8,0,10.4c0,0.9-0.3,1.8-1,2.4C177.4,257.5,176.6,257.8,175.6,257.8z M172.1,254.4c0-0.3,0-0.7,0-1.2c0-1.3,0-3.2,0-5.7
		c-1.5,0-3.8,0-6.9,0c0,1.5,0,3.8,0,6.9C166.8,254.4,169.1,254.4,172.1,254.4z"/>
	<path class="st0" d="M206.7,275.1c-1.5,0-3.8,0-6.9,0c0-3.1,0-7.7,0-13.8c-1.5,0-3.8,0-6.9,0c0,3.1,0,7.7,0,13.8
		c-1.5,0-3.8,0-6.9,0c0-2.6,0-6.5,0-11.7c0-2.2,0-4.8,0-8.1c0-3.3,0-7,0-11.3c0-0.9,0.3-1.8,1-2.4c0.7-0.7,1.5-1,2.4-1
		c3.1,0,7.7,0,13.8,0c0.9,0,1.8,0.3,2.4,1c0.7,0.7,1,1.5,1,2.4C206.7,250.9,206.7,261.3,206.7,275.1z M199.8,254.4
		c0-0.3,0-0.7,0-1.2c0-1.3,0-3.2,0-5.7c-1.5,0-3.8,0-6.9,0c0,1.5,0,3.8,0,6.9C194.4,254.4,196.7,254.4,199.8,254.4z"/>
	<path class="st0" d="M227.5,250.9c0-0.8,0-1.9,0-3.5c-1.5,0-3.8,0-6.9,0c0,4.6,0,11.5,0,20.8c1.6,0,3.9,0,6.9,0c0-0.8,0-1.9,0-3.5
		c1.5,0,3.8,0,6.9,0c0,1.5,0,3.8,0,6.9c0,1-0.3,1.8-1,2.4c-0.7,0.7-1.5,1-2.4,1c-3.1,0-7.7,0-13.8,0c-1,0-1.8-0.3-2.4-1
		c-0.7-0.7-1-1.5-1-2.4c0-2.3,0-5.8,0-10.4c0-1.9,0-4.3,0-7.1c0-2.9,0-6.3,0-10.1c0-0.9,0.3-1.8,1-2.4c0.7-0.7,1.5-1,2.4-1
		c3.1,0,7.7,0,13.8,0c0.9,0,1.8,0.3,2.4,1c0.7,0.7,1,1.5,1,2.4c0,1.6,0,3.9,0,6.9C232.8,250.9,230.5,250.9,227.5,250.9z"/>
	<path class="st0" d="M262,257.8c0,3.8,0,9.6,0,17.3c-1.5,0-3.8,0-6.9,0c0-3.1,0-7.7,0-13.8c-1.5,0-3.8,0-6.9,0c0,3.1,0,7.7,0,13.8
		c-1.5,0-3.8,0-6.9,0c0-3.8,0-8.6,0-14.4c0-5.7,0-12.5,0-20.2c1.5,0,3.8,0,6.9,0c0,3.1,0,7.7,0,13.8c0.3,0,0.8,0,1.5,0
		c1.3-3.1,3.1-7.7,5.6-13.8c1.7,0,4.3,0,7.8,0c-1.4,3.1-3.6,7.7-6.5,13.8c0.4,0,1.1,0,2,0c0.9,0,1.8,0.3,2.4,1
		C261.7,256.1,262,256.9,262,257.8z"/>
	<path class="st0" d="M276.9,247.5c0,3.1,0,5.4,0,6.9c4.6,0,8.1,0,10.4,0c0,3.1,0,5.4,0,6.9c-4.6,0-8.1,0-10.4,0c0,3.1,0,5.4,0,6.9
		c6.2,0,10.8,0,13.8,0c0,3.1,0,5.4,0,6.9c-6.1,0-10.7,0-13.8,0c-3.1,0-5.4,0-6.9,0c0-1.5,0-2.9,0-4c0-1.2,0-2.1,0-2.9
		c0-3.5,0-5.8,0-6.9c0-3.5,0-5.8,0-6.9c0-3.5,0-5.8,0-6.9c0-3.4,0-5.7,0-6.9c3.5,0,5.8,0,6.9,0c6.9,0,11.5,0,13.8,0
		c0,3.4,0,5.7,0,6.9C284.6,247.5,280,247.5,276.9,247.5z"/>
	<path class="st0" d="M315,257.8c0.9,0,1.8,0.3,2.4,1c0.7,0.7,1,1.5,1,2.4c0,3.1,0,7.7,0,13.8c-1.5,0-3.8,0-6.9,0
		c0-3.1,0-7.7,0-13.8c-1.5,0-3.8,0-6.9,0c0,3.1,0,7.7,0,13.8c-1.5,0-3.8,0-6.9,0c0-3.1,0-7.7,0-13.8c0-1.5,0-3.8,0-6.9
		c0-1.5,0-3.5,0-5.8c0-2.3,0-5,0-8.1c1.5,0,3.8,0,6.9,0c2.3,0,5.8,0,10.4,0c0.9,0,1.8,0.3,2.4,1c0.7,0.7,1,1.5,1,2.4
		c0,2.3,0,5.8,0,10.4c0,0.9-0.3,1.8-1,2.4C316.7,257.5,315.9,257.8,315,257.8z M311.5,254.4c0-0.3,0-0.7,0-1.2c0-1.3,0-3.2,0-5.7
		c-1.5,0-3.8,0-6.9,0c0,1.5,0,3.8,0,6.9C306.1,254.4,308.4,254.4,311.5,254.4z"/>
</g>
</svg>
